<?xml version="1.0" encoding="UTF-8"?><svg id="Layer_2" xmlns="http://www.w3.org/2000/svg" viewBox="0 0 1000 198.8299"><g id="Components"><g id="_18414efc-9ae0-410b-89d8-4df674f7a64f_5"><path d="M249.7796,39.963l-50.556,119.3886h24.3197l12.5286-29.6259h51.4401l12.5286,29.6259h25.0571l-50.1138-119.3886h-25.2042ZM243.8835,109.2379l18.1294-43.6283h.7369l17.9819,43.6283h-36.8483Z" style="fill:#fff;"></path><path d="M404.8372,74.8951c-6.2893-3.8323-14.0529-5.7485-23.2881-5.7485-7.3699,0-13.6846,1.4003-18.9399,4.201-5.2581,2.8002-9.4105,6.8051-12.455,12.0123h-6.1903v-14.4447h-24.3202v23.7308h11.7916v100.0799h24.025v-47.6082h.5898c2.5536,4.4221,6.1648,7.8626,10.8331,10.3177,4.6659,2.4551,10.2923,3.6847,16.8767,3.6847,8.4497,0,15.672-1.8907,21.6671-5.6744,5.9923-3.7819,10.587-9.1385,13.7804-16.0662,3.192-6.9272,4.7904-15.0086,4.7904-24.2461s-1.6215-17.2935-4.8639-24.1726c-3.242-6.8768-8.0093-12.2334-14.2967-16.0657ZM394.2248,133.6316c-3.8318,4.4721-9.4836,6.7061-16.9502,6.7061-6.6834,0-11.9896-1.8653-15.9181-5.6009-3.9313-3.7333-5.896-8.8919-5.896-15.4763v-8.254c0-6.5821,1.9647-11.7407,5.896-15.4763,3.9285-3.7333,9.2347-5.6009,15.9181-5.6009,7.4666,0,13.1184,2.2363,16.9502,6.7065,3.8323,4.4726,5.7485,10.6374,5.7485,18.4977s-1.9162,14.0279-5.7485,18.4981Z" style="fill:#fff;"></path><rect x="432.1033" y="35.5409" width="24.025" height="123.8107" style="fill:#fff;"></rect><path d="M536.9713,74.7476c-7.0262-3.7328-15.3542-5.6009-24.9831-5.6009s-18.0328,1.868-25.2042,5.6009c-7.1738,3.7356-12.7011,9.0418-16.5815,15.9186-3.8832,6.8791-5.8225,14.986-5.8225,24.3202s1.9647,17.4661,5.896,24.3933c3.929,6.9277,9.4332,12.2843,16.508,16.0662,7.0748,3.7837,15.3773,5.6744,24.9095,5.6744,9.7279,0,18.1294-1.8653,25.2042-5.6009,7.0748-3.7333,12.5286-9.0645,16.3609-15.9922,3.8318-6.9277,5.748-15.0572,5.748-24.3937,0-9.4332-1.9162-17.5882-5.748-24.4673-3.8323-6.8768-9.263-12.183-16.2873-15.9186ZM529.086,133.5576c-4.0303,4.5211-9.7788,6.7801-17.2454,6.7801-7.5675,0-13.3895-2.259-17.4661-6.7801-4.0784-4.5184-6.1167-10.6605-6.1167-18.4241,0-7.8603,2.0383-14.0251,6.1167-18.4977,4.0766-4.4703,9.8986-6.7065,17.4661-6.7065,7.4666,0,13.2151,2.2363,17.2454,6.7065,4.028,4.4726,6.0431,10.6374,6.0431,18.4977,0,7.7636-2.0152,13.9058-6.0431,18.4241Z" style="fill:#fff;"></path><path d="M617.3734,106.4372l-20.0456-3.8318c-3.1458-.5898-5.4788-1.5225-7.0012-2.8007-1.5243-1.2759-2.2844-2.8974-2.2844-4.8639,0-2.7498,1.2273-4.8135,3.6847-6.1907,2.4551-1.3749,5.9441-2.0633,10.4648-2.0633,5.3062,0,9.3828.9581,12.2339,2.8742,2.8488,1.9157,4.7649,4.9375,5.7485,9.0645h23.1405c-.6884-9.3342-4.4952-16.5815-11.4229-21.7406-6.9277-5.1586-16.3377-7.7382-28.226-7.7382s-21.2017,2.506-27.9309,7.517c-6.7315,5.0115-10.0966,11.7916-10.0966,20.3403,0,13.0698,8.7929,21.3238,26.3834,24.7624l19.6033,3.6847c3.6343.6884,6.2388,1.7205,7.8117,3.0954,1.571,1.3772,2.3584,3.2425,2.3584,5.6009,0,5.7989-5.1586,8.6962-15.4763,8.6962-6.3883,0-11.2272-1.0321-14.5183-3.0954-3.2934-2.0637-5.3312-5.2558-6.1167-9.5808h-23.1405c.5894,9.7283,4.6174,17.3189,12.0858,22.7723,7.4666,5.4538,17.6872,8.1804,30.658,8.1804,12.5767,0,22.2055-2.5541,28.889-7.6642,6.6811-5.1082,10.023-12.1834,10.023-21.2248,0-7.0748-2.1627-12.6757-6.4854-16.8031-4.325-4.127-11.1051-7.1229-20.3403-8.9909Z" style="fill:#fff;"></path><path d="M735.5079,47.1114c-9.3846-4.7649-20.5614-7.1483-33.5318-7.1483h-41.8598v119.3886h41.8598c12.8714,0,24-2.4065,33.3847-7.2224,9.3823-4.8131,16.6301-11.6926,21.7406-20.635,5.1077-8.9405,7.6642-19.5529,7.6642-31.8372,0-12.381-2.531-23.0415-7.5906-31.9843-5.0619-8.94-12.2843-15.7942-21.6671-20.5614ZM737.424,134.8108c-8.5001,8.3044-20.3172,12.4545-35.4479,12.4545h-27.7102V52.0493h27.7102c15.2298,0,27.07,4.127,35.5219,12.381,8.4497,8.254,12.6757,19.997,12.6757,35.2268,0,15.1335-4.2514,26.8511-12.7497,35.1537Z" style="fill:#fff;"></path><path d="M849.6629,102.6054c0-10.8086-3.1939-19.0875-9.5803-24.836-6.3887-5.7485-15.5753-8.6227-27.5626-8.6227-10.5157,0-19.1865,2.3584-26.0147,7.0748-6.831,4.7168-10.9325,11.3012-12.3074,19.7509h14.1496c2.6531-10.0226,10.562-15.0341,23.7303-15.0341,16.2133,0,24.3202,7.5675,24.3202,22.6987v4.127h-31.8372c-10.5153,0-18.5486,2.3098-24.0986,6.9272-5.5528,4.6201-8.328,11.1537-8.328,19.6033,0,7.8626,2.8488,14.2745,8.5491,19.2351,5.6976,4.9629,13.4612,7.4435,23.2881,7.4435,6.7801,0,12.8714-1.3522,18.2766-4.0534,5.4029-2.7017,9.6289-6.3129,12.6761-10.8335h6.1903v13.2655h15.3292v-14.7394h-6.7806v-42.0069ZM836.3979,123.2403c0,4.8154-1.3772,9.2121-4.127,13.1915-2.7521,3.9799-6.4623,7.1488-11.1282,9.5068-4.6683,2.3584-9.8019,3.5376-15.4028,3.5376-6.3887,0-11.4229-1.4235-15.1076-4.2746-3.6852-2.8488-5.5273-6.6806-5.5273-11.4965,0-10.2187,6.8282-15.3288,20.4874-15.3288h30.8056v4.8639Z" style="fill:#fff;"></path><path d="M886.6564,81.5277h24.0255v-10.6124h-24.1726v-26.5305h-13.5602v26.5305h-17.0978v10.6124h16.9502v65.1483c0,4.226,1.1538,7.3949,3.4636,9.5068,2.308,2.1142,5.5273,3.1689,9.6543,3.1689h27.1204v-10.9071h-26.3834v-66.9169Z" style="fill:#fff;"></path><path d="M993.2199,144.6122v-42.0069c0-10.8086-3.1944-19.0875-9.5808-24.836-6.3887-5.7485-15.5753-8.6227-27.5626-8.6227-10.5153,0-19.1865,2.3584-26.0147,7.0748-6.831,4.7168-10.9325,11.3012-12.3074,19.7509h14.1496c2.6531-10.0226,10.562-15.0341,23.7303-15.0341,16.2133,0,24.3202,7.5675,24.3202,22.6987v4.127h-31.8372c-10.5153,0-18.5486,2.3098-24.0986,6.9272-5.5528,4.6201-8.328,11.1537-8.328,19.6033,0,7.8626,2.8492,14.2745,8.5491,19.2351,5.6976,4.9629,13.4612,7.4435,23.2881,7.4435,6.7801,0,12.8714-1.3522,18.2766-4.0534,5.4029-2.7017,9.6289-6.3129,12.6761-10.8335h6.1903v13.2655h15.3292v-14.7394h-6.7801ZM979.9544,123.2403c0,4.8154-1.3772,9.2121-4.127,13.1915-2.7521,3.9799-6.4623,7.1488-11.1282,9.5068-4.6683,2.3584-9.8019,3.5376-15.4028,3.5376-6.3887,0-11.4229-1.4235-15.1076-4.2746-3.6847-2.8488-5.5273-6.6806-5.5273-11.4965,0-10.2187,6.8287-15.3288,20.4879-15.3288h30.8051v4.8639Z" style="fill:#fff;"></path><path d="M98.9946,30.1713v138.4752c38.2435,0,69.2272-31.0045,69.2272-69.2485,0-38.2222-30.9837-69.2267-69.2272-69.2267Z" style="fill:#fff;"></path><rect x="77.5399" y="93.5011" width="11.8143" height="11.8138" style="fill:#fff;"></rect><rect x="78.0414" y="77.6769" width="10.8113" height="10.8113" style="fill:#fff;"></rect><rect x="78.7894" y="62.0997" width="9.3152" height="9.3152" style="fill:#fff;"></rect><rect x="79.3413" y="46.3379" width="8.2114" height="8.2119" style="fill:#fff;"></rect><rect x="79.872" y="30.5317" width="7.1502" height="7.1502" style="fill:#fff;"></rect><rect x="80.5219" y="14.856" width="5.8502" height="5.8502" style="fill:#fff;"></rect><rect x="81.9847" y=".0005" width="2.9247" height="2.9251" style="fill:#fff;"></rect><rect x="78.0414" y="110.3278" width="10.8113" height="10.8113" style="fill:#fff;"></rect><rect x="78.5563" y="127.1679" width="9.7815" height="9.7815" style="fill:#fff;"></rect><rect x="62.231" y="127.1679" width="9.7815" height="9.7815" style="fill:#fff;"></rect><rect x="79.5467" y="144.4841" width="7.8006" height="7.8002" style="fill:#fff;"></rect><rect x="63.2215" y="144.4841" width="7.8002" height="7.8002" style="fill:#fff;"></rect><rect x="79.8877" y="161.1327" width="7.1187" height="7.1183" style="fill:#fff;"></rect><rect x="63.5625" y="161.1327" width="7.1183" height="7.1183" style="fill:#fff;"></rect><rect x="80.5219" y="178.1098" width="5.8502" height="5.8502" style="fill:#fff;"></rect><rect x="81.9847" y="195.9047" width="2.9247" height="2.9251" style="fill:#fff;"></rect><rect x="64.1967" y="178.1098" width="5.8502" height="5.8502" style="fill:#fff;"></rect><rect x="65.6655" y="195.9043" width="2.9122" height="2.9122" style="fill:#fff;"></rect><rect x="62.1024" y="110.7141" width="10.0388" height="10.0388" style="fill:#fff;"></rect><rect x="62.1024" y="94.3884" width="10.0388" height="10.0392" style="fill:#fff;"></rect><rect x="62.1024" y="78.0631" width="10.0388" height="10.0392" style="fill:#fff;"></rect><rect x="62.4637" y="62.0997" width="9.3157" height="9.3152" style="fill:#fff;"></rect><rect x="63.0267" y="46.337" width="8.1901" height="8.1901" style="fill:#fff;"></rect><rect x="63.5467" y="30.5317" width="7.1502" height="7.1502" style="fill:#fff;"></rect><rect x="64.7814" y="15.4412" width="4.6803" height="4.6803" style="fill:#fff;"></rect><rect x="65.6655" width="2.9122" height="2.9117" style="fill:#fff;"></rect><rect x="46.497" y="95.1087" width="8.5986" height="8.5986" style="fill:#fff;"></rect><rect x="46.497" y="111.4339" width="8.5986" height="8.5991" style="fill:#fff;"></rect><rect x="46.5373" y="127.7999" width="8.5181" height="8.5177" style="fill:#fff;"></rect><rect x="46.8963" y="144.4841" width="7.8002" height="7.8002" style="fill:#fff;"></rect><rect x="47.8715" y="161.7845" width="5.8498" height="5.8498" style="fill:#fff;"></rect><rect x="48.4562" y="178.6945" width="4.6803" height="4.6803" style="fill:#fff;"></rect><rect x="32.8328" y="179.3968" width="3.2762" height="3.2762" style="fill:#fff;"></rect><rect x="31.5495" y="161.7882" width="5.8428" height="5.8424" style="fill:#fff;"></rect><rect x="31.5458" y="145.4588" width="5.8502" height="5.8502" style="fill:#fff;"></rect><rect x="30.7172" y="128.305" width="7.5078" height="7.5078" style="fill:#fff;"></rect><rect x="30.7172" y="111.9793" width="7.5078" height="7.5078" style="fill:#fff;"></rect><rect x="30.7172" y="95.6541" width="7.5078" height="7.5078" style="fill:#fff;"></rect><rect x="30.7172" y="79.3289" width="7.5078" height="7.5078" style="fill:#fff;"></rect><rect x="30.7172" y="63.0036" width="7.5078" height="7.5073" style="fill:#fff;"></rect><rect x="31.5458" y="47.5069" width="5.8502" height="5.8502" style="fill:#fff;"></rect><rect x="15.8057" y="48.0917" width="4.6798" height="4.6803" style="fill:#fff;"></rect><rect x="47.8715" y="31.1817" width="5.8498" height="5.8498" style="fill:#fff;"></rect><rect x="31.5458" y="31.1817" width="5.8502" height="5.8498" style="fill:#fff;"></rect><rect x="16.5075" y="32.4687" width="3.2762" height="3.2758" style="fill:#fff;"></rect><rect x="32.8328" y="16.1434" width="3.2762" height="3.2758" style="fill:#fff;"></rect><rect x="48.4562" y="15.4412" width="4.6803" height="4.6803" style="fill:#fff;"></rect><rect x=".3641" y="65.3014" width="2.9122" height="2.9122" style="fill:#fff;"></rect><rect x=".3641" y="81.6267" width="2.9122" height="2.9122" style="fill:#fff;"></rect><rect y="97.5878" width="3.6403" height="3.6403" style="fill:#fff;"></rect><rect x=".3641" y="114.2771" width="2.9122" height="2.9122" style="fill:#fff;"></rect><rect x=".3641" y="130.6029" width="2.9122" height="2.9117" style="fill:#fff;"></rect><rect x="16.5075" y="163.0715" width="3.2762" height="3.2758" style="fill:#fff;"></rect><rect x="15.8057" y="146.044" width="4.6798" height="4.6803" style="fill:#fff;"></rect><rect x="15.8057" y="129.7188" width="4.6798" height="4.6803" style="fill:#fff;"></rect><rect x="15.2205" y="112.8083" width="5.8502" height="5.8502" style="fill:#fff;"></rect><rect x="15.2205" y="96.4831" width="5.8502" height="5.8502" style="fill:#fff;"></rect><rect x="15.2205" y="80.1574" width="5.8502" height="5.8502" style="fill:#fff;"></rect><rect x="15.8057" y="64.4174" width="4.6798" height="4.6798" style="fill:#fff;"></rect><rect x="46.497" y="78.7834" width="8.5986" height="8.5986" style="fill:#fff;"></rect><rect x="46.497" y="62.4577" width="8.5986" height="8.5991" style="fill:#fff;"></rect><rect x="46.701" y="46.337" width="8.1906" height="8.1901" style="fill:#fff;"></rect></g></g></svg>